<svg xmlns="http://www.w3.org/2000/svg" width="17" height="17" viewBox="0 0 17 17"><g><g><g><path fill="#fff" d="M-.044 8.808a8.192 8.192 0 1 1 16.384 0 8.192 8.192 0 0 1-16.384 0z"/></g><g><g><path fill="#f3f4f5" d="M6.876.714A8.197 8.197 0 0 0 .054 7.536h6.822z"/></g><g><path fill="#f3f4f5" d="M.054 10.08A8.198 8.198 0 0 0 6.876 16.9V10.08z"/></g></g><g><g><path fill="#da1e37" d="M3.807 6.243V3.462h.7v2.781z"/></g><g><path fill="#da1e37" d="M2.766 5.203v-.7h2.781v.7z"/></g><g><path fill="#da1e37" d="M3.807 14.328v-2.782h.7v2.782z"/></g><g><path fill="#da1e37" d="M2.766 13.288v-.7h2.781v.7z"/></g></g><g><g><path fill="#f3f4f5" d="M11.196 12.587h2.371v.7h-2.526c-.353 1.423-.893 2.584-1.621 3.21v.404a8.198 8.198 0 0 0 6.82-6.821h-5.109c-.05.869.22 1.718.065 2.507z"/></g><g><path fill="#f3f4f5" d="M11.083 4.503h2.484v.7H11.23c.136.74-.048 1.528-.001 2.333h5.013A8.198 8.198 0 0 0 9.42.714v.405c.757.651 1.312 1.882 1.663 3.384z"/></g></g><g><g><path fill="#cf2028" d="M7.614 16.981a7.738 7.738 0 0 1-.182-.013"/></g><g><path fill="#cf2028" d="M7.432.648a8.7 8.7 0 0 1 .182-.014"/></g><g><path fill="#cf2028" d="M7.772.625c.125-.006.25-.01.375-.01"/></g><g><path fill="#da1e37" d="M16.24 7.536h-5.012c.049.842.049 1.702 0 2.543h5.013a8.238 8.238 0 0 0 0-2.543z"/></g><g><path fill="#cf2028" d="M8.147 17c.433 0 .858-.034 1.273-.099v-.405c-.375.322-.799.504-1.273.504z"/></g><g><path fill="#cf2028" d="M9.42.714A8.25 8.25 0 0 0 8.147.615c.474 0 .898.182 1.273.504z"/></g><g><path fill="#cf2028" d="M8.147 17c-.125 0-.25-.004-.375-.01"/></g><g><path fill="#cf2028" d="M13.567 5.203v-.7h-2.603c.053.227.102.46.146.7z"/></g><g><path fill="#cf2028" d="M13.567 13.287v-.7h-2.49c-.047.24-.098.473-.155.7z"/></g></g><g><g><path fill="#fff" d="M7.614.634l.158-.01"/></g><g><path fill="#fff" d="M7.772 16.99a6.975 6.975 0 0 1-.158-.009"/></g></g><g><g><path fill="#f3f4f5" d="M9.42 16.496c.728-.625 1.268-1.786 1.621-3.209h-.255v-.7h.41c.155-.79.257-1.638.307-2.508H9.42z"/></g><g><path fill="#f3f4f5" d="M10.786 5.203v-.7h.297C10.732 3 10.177 1.77 9.42 1.119v6.417h2.083a19.122 19.122 0 0 0-.274-2.333z"/></g></g><g><g><path fill="#da1e37" d="M9.42 10.08h2.083c.05-.842.05-1.702 0-2.544H9.42V1.119C9.045.797 8.62.615 8.147.615c-.125 0-.25.004-.375.01-.053.002-.105.006-.158.009a8.51 8.51 0 0 0-.738.08v6.822H.054a8.246 8.246 0 0 0 0 2.543h6.822v6.822a8.375 8.375 0 0 0 .738.08l.158.01c.126.005.25.009.375.009.474 0 .898-.182 1.273-.504z"/></g><g><path fill="#da1e37" d="M10.786 5.203h.443a15.032 15.032 0 0 0-.145-.7h-.298v.7z"/></g><g><path fill="#da1e37" d="M10.786 13.287h.255c.057-.227.108-.46.155-.7h-.41z"/></g></g><g><g><path fill="#cf2028" d="M11.827 14.328v-2.782h.7v2.782z"/></g><g><path fill="#cf2028" d="M11.827 6.243V3.462h.7v2.781z"/></g></g></g></g></svg>