<svg xmlns="http://www.w3.org/2000/svg" id="Isolation_Mode" width="43.847" height="54.425">
    <style id="style3">.st4{fill:#ffd500}</style>
    <g id="g5" transform="translate(-52.453 -41.6)">
        <g id="g7">
            <path d="M93.9 55.5c-1.6.7-3.4.9-5.3.5-3.4-.7-6.2-3.5-6.9-6.9-.4-1.9-.2-3.7.5-5.3.2-.4 0-.8-.4-.9-2.5-.9-5-1.3-7.7-1.3-12.8.1-22.4 11.1-21.6 23.8.1 1.2.2 2.4.4 3.6l1.3-1.3 3.1-3.1 5.7-5.7c.7-.7 1.8-.7 2.5 0l7 7c.7.7 1.8.7 2.5 0l2.9-2.9 5.7-5.7c.7-.7 1.8-.7 2.5 0l1.1 1.1 4.6 4.6 4.3 4.3c.2-1.3.2-2.6.2-3.9 0-2.6-.4-5.1-1.3-7.5-.4-.4-.8-.5-1.1-.4z"
                  id="path9" fill="#005bbb"/>
            <path d="M95.7 46.2c.3 1.4.1 2.8-.5 4-.3.5-.6 1-1 1.4-.4.4-.8.7-1.3 1-1.1.6-2.5.8-3.9.5-2.1-.5-3.9-2.2-4.3-4.3-.3-1.4-.1-2.8.5-3.9.3-.5.6-.9 1-1.3s.9-.8 1.4-1c1.1-.6 2.5-.8 3.9-.5 2 .3 3.7 2 4.2 4.1z"
                  id="path11" fill="#ffd500"/>
            <g id="g13">
                <path d="M84.9 88.6c-3 3-5.9 5.2-8 6.6-1.6 1.1-3.8 1.1-5.4 0-2.1-1.4-5-3.6-8-6.6 1.8.1 2.9.7 4.1 1.3 1.5.8 3.3 1.6 6.6 1.6s5.1-.9 6.6-1.6c1.2-.7 2.2-1.2 4.1-1.3z"
                      id="path15" fill="#ffd500"/>
                <path d="M86.1 79.7c-1.2 0-2.1.1-2.8.3h-.1c-.9.2-1.5.6-2.3.9-1.5.8-3.3 1.6-6.6 1.6s-5.1-.9-6.6-1.6c-1.4-.7-2.6-1.3-5.1-1.3-2.1 0-3.8.4-5.4.9.8 1.4 1.8 2.8 2.8 4.1.2.2.4.4.5.7.5-.1 1.2-.1 1.8-.1 3.3 0 5.1.9 6.6 1.6 1.4.7 2.6 1.3 5.1 1.3 2.6 0 3.8-.6 5.1-1.3 1.5-.8 3.3-1.6 6.6-1.6.7 0 1.3 0 1.8.1.2-.2.4-.4.5-.7 1.1-1.4 2-2.8 2.9-4.2-1.2-.4-2.8-.7-4.8-.7z"
                      id="path17" fill="#ffd500"/>
            </g>
            <g id="g19">
                <path class="st4"
                      d="M79.8 78c-.1 0-.1.1-.2.1-1.4.7-2.6 1.3-5.2 1.3s-3.8-.6-5.2-1.3c-1.5-.8-3.3-1.6-6.6-1.6-2.8 0-5 .6-7 1.3-.6-1.4-1.2-2.8-1.7-4.2-.1-.3-.2-.5-.2-.8l5.3-5.3c.6-.6 1.6-.7 2.3-.2l1.7 1.3c.6.5 1.5.5 2.1 0l1.7-1.3c.7-.5 1.7-.5 2.3.2L79.8 78z"
                      id="path21" fill="#41bc9d"/>
                <path class="st4"
                      d="M95.2 71.2c-.5 2.2-1.3 4.3-2.3 6.4-1.9-.6-4-1.2-6.7-1.2-1.2 0-2.2.1-3 .3l-6-6c-.7-.7-.7-1.8 0-2.5l4-4.1c.7-.7 1.9-.7 2.6.1l.4.4c.4.5 1 .7 1.7.6l2.1-.4c.6-.1 1.2.1 1.6.5l5.6 5.9z"
                      id="path23" fill="#41bc9d"/>
            </g>
        </g>
    </g>
</svg>